<mxfile><diagram id="emtr-sP_ipj3b62gElq1" name="Page-1"><mxGraphModel dx="1222" dy="558" grid="1" gridSize="10" guides="1" tooltips="1" connect="1" arrows="1" fold="1" page="1" pageScale="1" pageWidth="850" pageHeight="1100" math="0" shadow="0"><root><mxCell id="0"/><mxCell id="1" parent="0"/><mxCell id="2" value="Database" style="shape=cylinder3;whiteSpace=wrap;html=1;boundedLbl=1;backgroundOutline=1;size=15;" vertex="1" parent="1"><mxGeometry x="330" y="340" width="120" height="120" as="geometry"/></mxCell><mxCell id="3" value="Instructor" style="swimlane;whiteSpace=wrap;html=1;" vertex="1" parent="1"><mxGeometry x="70" y="50" width="200" height="260" as="geometry"><mxRectangle x="20" y="60" width="100" height="30" as="alternateBounds"/></mxGeometry></mxCell><mxCell id="5" value="Verify assessment" style="text;html=1;align=center;verticalAlign=middle;resizable=0;points=[];autosize=1;strokeColor=none;fillColor=none;" vertex="1" parent="3"><mxGeometry x="10" y="20" width="120" height="30" as="geometry"/></mxCell><mxCell id="6" value="Take mentoring session" style="text;html=1;align=center;verticalAlign=middle;resizable=0;points=[];autosize=1;strokeColor=none;fillColor=none;" vertex="1" parent="3"><mxGeometry x="9" y="34" width="150" height="30" as="geometry"/></mxCell><mxCell id="7" value="Monitor skill" style="text;html=1;align=center;verticalAlign=middle;resizable=0;points=[];autosize=1;strokeColor=none;fillColor=none;" vertex="1" parent="3"><mxGeometry x="10" y="50" width="90" height="30" as="geometry"/></mxCell><mxCell id="8" value="Add employment opportunity" style="text;html=1;align=center;verticalAlign=middle;resizable=0;points=[];autosize=1;strokeColor=none;fillColor=none;" vertex="1" parent="3"><mxGeometry x="9" y="65" width="180" height="30" as="geometry"/></mxCell><mxCell id="9" value="Add grants" style="text;html=1;align=center;verticalAlign=middle;resizable=0;points=[];autosize=1;strokeColor=none;fillColor=none;" vertex="1" parent="3"><mxGeometry x="10" y="80" width="80" height="30" as="geometry"/></mxCell><mxCell id="38" value="" style="shape=waypoint;sketch=0;fillStyle=solid;size=6;pointerEvents=1;points=[];fillColor=none;resizable=0;rotatable=0;perimeter=centerPerimeter;snapToPoint=1;" vertex="1" parent="3"><mxGeometry y="25" width="20" height="20" as="geometry"/></mxCell><mxCell id="39" value="" style="shape=waypoint;sketch=0;fillStyle=solid;size=6;pointerEvents=1;points=[];fillColor=none;resizable=0;rotatable=0;perimeter=centerPerimeter;snapToPoint=1;" vertex="1" parent="3"><mxGeometry y="40" width="20" height="20" as="geometry"/></mxCell><mxCell id="40" value="" style="shape=waypoint;sketch=0;fillStyle=solid;size=6;pointerEvents=1;points=[];fillColor=none;resizable=0;rotatable=0;perimeter=centerPerimeter;snapToPoint=1;" vertex="1" parent="3"><mxGeometry y="55" width="20" height="20" as="geometry"/></mxCell><mxCell id="41" value="" style="shape=waypoint;sketch=0;fillStyle=solid;size=6;pointerEvents=1;points=[];fillColor=none;resizable=0;rotatable=0;perimeter=centerPerimeter;snapToPoint=1;" vertex="1" parent="3"><mxGeometry y="70" width="20" height="20" as="geometry"/></mxCell><mxCell id="42" value="" style="shape=waypoint;sketch=0;fillStyle=solid;size=6;pointerEvents=1;points=[];fillColor=none;resizable=0;rotatable=0;perimeter=centerPerimeter;snapToPoint=1;" vertex="1" parent="3"><mxGeometry y="85" width="20" height="20" as="geometry"/></mxCell><mxCell id="10" value="Student" style="swimlane;whiteSpace=wrap;html=1;" vertex="1" parent="1"><mxGeometry x="540" y="370" width="200" height="239" as="geometry"/></mxCell><mxCell id="11" value="use study materias" style="text;html=1;align=center;verticalAlign=middle;resizable=0;points=[];autosize=1;strokeColor=none;fillColor=none;" vertex="1" parent="10"><mxGeometry x="15" y="20" width="120" height="30" as="geometry"/></mxCell><mxCell id="12" value="find jobs" style="text;html=1;align=center;verticalAlign=middle;resizable=0;points=[];autosize=1;strokeColor=none;fillColor=none;" vertex="1" parent="10"><mxGeometry x="10" y="35" width="70" height="30" as="geometry"/></mxCell><mxCell id="13" value="find mentor" style="text;html=1;align=center;verticalAlign=middle;resizable=0;points=[];autosize=1;strokeColor=none;fillColor=none;" vertex="1" parent="10"><mxGeometry x="12" y="51" width="80" height="30" as="geometry"/></mxCell><mxCell id="14" value="enroll course" style="text;html=1;align=center;verticalAlign=middle;resizable=0;points=[];autosize=1;strokeColor=none;fillColor=none;" vertex="1" parent="10"><mxGeometry x="11" y="64" width="90" height="30" as="geometry"/></mxCell><mxCell id="15" value="collabrate with other participate&lt;br&gt;&amp;nbsp;in discussuin form" style="text;html=1;align=left;verticalAlign=middle;resizable=0;points=[];autosize=1;strokeColor=none;fillColor=none;" vertex="1" parent="10"><mxGeometry x="20" y="81" width="190" height="40" as="geometry"/></mxCell><mxCell id="16" value="view each other profile" style="text;html=1;align=center;verticalAlign=middle;resizable=0;points=[];autosize=1;strokeColor=none;fillColor=none;" vertex="1" parent="10"><mxGeometry x="14" y="107" width="140" height="30" as="geometry"/></mxCell><mxCell id="17" value="Take mentoring session" style="text;html=1;align=center;verticalAlign=middle;resizable=0;points=[];autosize=1;strokeColor=none;fillColor=none;" vertex="1" parent="10"><mxGeometry x="11" y="123.5" width="150" height="30" as="geometry"/></mxCell><mxCell id="19" value="chat with mentors" style="text;html=1;align=center;verticalAlign=middle;resizable=0;points=[];autosize=1;strokeColor=none;fillColor=none;" vertex="1" parent="10"><mxGeometry x="9" y="137" width="120" height="30" as="geometry"/></mxCell><mxCell id="20" value="attend webinars" style="text;html=1;align=center;verticalAlign=middle;resizable=0;points=[];autosize=1;strokeColor=none;fillColor=none;" vertex="1" parent="10"><mxGeometry x="9" y="153" width="110" height="30" as="geometry"/></mxCell><mxCell id="21" value="apply for financial add" style="text;html=1;align=center;verticalAlign=middle;resizable=0;points=[];autosize=1;strokeColor=none;fillColor=none;" vertex="1" parent="10"><mxGeometry x="9" y="167" width="140" height="30" as="geometry"/></mxCell><mxCell id="22" value="view mentor profile" style="text;html=1;align=center;verticalAlign=middle;resizable=0;points=[];autosize=1;strokeColor=none;fillColor=none;" vertex="1" parent="10"><mxGeometry x="11" y="182" width="120" height="30" as="geometry"/></mxCell><mxCell id="23" value="give review" style="text;html=1;align=center;verticalAlign=middle;resizable=0;points=[];autosize=1;strokeColor=none;fillColor=none;" vertex="1" parent="10"><mxGeometry x="11" y="197" width="80" height="30" as="geometry"/></mxCell><mxCell id="43" value="" style="shape=waypoint;sketch=0;fillStyle=solid;size=6;pointerEvents=1;points=[];fillColor=none;resizable=0;rotatable=0;perimeter=centerPerimeter;snapToPoint=1;" vertex="1" parent="10"><mxGeometry y="25" width="20" height="20" as="geometry"/></mxCell><mxCell id="45" value="" style="shape=waypoint;sketch=0;fillStyle=solid;size=6;pointerEvents=1;points=[];fillColor=none;resizable=0;rotatable=0;perimeter=centerPerimeter;snapToPoint=1;" vertex="1" parent="10"><mxGeometry y="55" width="20" height="20" as="geometry"/></mxCell><mxCell id="47" value="" style="shape=waypoint;sketch=0;fillStyle=solid;size=6;pointerEvents=1;points=[];fillColor=none;resizable=0;rotatable=0;perimeter=centerPerimeter;snapToPoint=1;" vertex="1" parent="10"><mxGeometry y="85" width="20" height="20" as="geometry"/></mxCell><mxCell id="48" value="" style="shape=waypoint;sketch=0;fillStyle=solid;size=6;pointerEvents=1;points=[];fillColor=none;resizable=0;rotatable=0;perimeter=centerPerimeter;snapToPoint=1;" vertex="1" parent="10"><mxGeometry y="114" width="20" height="20" as="geometry"/></mxCell><mxCell id="51" value="" style="shape=waypoint;sketch=0;fillStyle=solid;size=6;pointerEvents=1;points=[];fillColor=none;resizable=0;rotatable=0;perimeter=centerPerimeter;snapToPoint=1;" vertex="1" parent="10"><mxGeometry y="129" width="20" height="20" as="geometry"/></mxCell><mxCell id="52" value="" style="shape=waypoint;sketch=0;fillStyle=solid;size=6;pointerEvents=1;points=[];fillColor=none;resizable=0;rotatable=0;perimeter=centerPerimeter;snapToPoint=1;" vertex="1" parent="10"><mxGeometry y="144" width="20" height="20" as="geometry"/></mxCell><mxCell id="53" value="" style="shape=waypoint;sketch=0;fillStyle=solid;size=6;pointerEvents=1;points=[];fillColor=none;resizable=0;rotatable=0;perimeter=centerPerimeter;snapToPoint=1;" vertex="1" parent="10"><mxGeometry y="159" width="20" height="20" as="geometry"/></mxCell><mxCell id="54" value="" style="shape=waypoint;sketch=0;fillStyle=solid;size=6;pointerEvents=1;points=[];fillColor=none;resizable=0;rotatable=0;perimeter=centerPerimeter;snapToPoint=1;" vertex="1" parent="10"><mxGeometry y="174" width="20" height="20" as="geometry"/></mxCell><mxCell id="55" value="" style="shape=waypoint;sketch=0;fillStyle=solid;size=6;pointerEvents=1;points=[];fillColor=none;resizable=0;rotatable=0;perimeter=centerPerimeter;snapToPoint=1;" vertex="1" parent="10"><mxGeometry y="189" width="20" height="20" as="geometry"/></mxCell><mxCell id="57" value="" style="shape=waypoint;sketch=0;fillStyle=solid;size=6;pointerEvents=1;points=[];fillColor=none;resizable=0;rotatable=0;perimeter=centerPerimeter;snapToPoint=1;" vertex="1" parent="10"><mxGeometry y="204" width="20" height="20" as="geometry"/></mxCell><mxCell id="44" value="" style="shape=waypoint;sketch=0;fillStyle=solid;size=6;pointerEvents=1;points=[];fillColor=none;resizable=0;rotatable=0;perimeter=centerPerimeter;snapToPoint=1;" vertex="1" parent="10"><mxGeometry y="40" width="20" height="20" as="geometry"/></mxCell><mxCell id="46" value="" style="shape=waypoint;sketch=0;fillStyle=solid;size=6;pointerEvents=1;points=[];fillColor=none;resizable=0;rotatable=0;perimeter=centerPerimeter;snapToPoint=1;" vertex="1" parent="10"><mxGeometry y="69" width="20" height="20" as="geometry"/></mxCell><mxCell id="24" value="Admin" style="swimlane;whiteSpace=wrap;html=1;" vertex="1" parent="1"><mxGeometry x="30" y="400" width="240" height="200" as="geometry"/></mxCell><mxCell id="27" value="fake profile detaction" style="text;html=1;align=center;verticalAlign=middle;resizable=0;points=[];autosize=1;strokeColor=none;fillColor=none;" vertex="1" parent="24"><mxGeometry x="10" y="35" width="130" height="30" as="geometry"/></mxCell><mxCell id="26" value="add new scholarship, grant information" style="text;html=1;align=center;verticalAlign=middle;resizable=0;points=[];autosize=1;strokeColor=none;fillColor=none;" vertex="1" parent="24"><mxGeometry x="9" y="19" width="230" height="30" as="geometry"/></mxCell><mxCell id="28" value="send notification" style="text;html=1;align=center;verticalAlign=middle;resizable=0;points=[];autosize=1;strokeColor=none;fillColor=none;" vertex="1" parent="24"><mxGeometry x="9" y="49" width="110" height="30" as="geometry"/></mxCell><mxCell id="29" value="manage platform" style="text;html=1;align=center;verticalAlign=middle;resizable=0;points=[];autosize=1;strokeColor=none;fillColor=none;" vertex="1" parent="24"><mxGeometry x="10" y="64" width="110" height="30" as="geometry"/></mxCell><mxCell id="30" value="manage apils" style="text;html=1;align=center;verticalAlign=middle;resizable=0;points=[];autosize=1;strokeColor=none;fillColor=none;" vertex="1" parent="24"><mxGeometry x="10" y="79" width="90" height="30" as="geometry"/></mxCell><mxCell id="31" value="varify mentor for create guidlinces" style="text;html=1;align=center;verticalAlign=middle;resizable=0;points=[];autosize=1;strokeColor=none;fillColor=none;" vertex="1" parent="24"><mxGeometry x="10" y="94" width="200" height="30" as="geometry"/></mxCell><mxCell id="32" value="" style="shape=waypoint;sketch=0;fillStyle=solid;size=6;pointerEvents=1;points=[];fillColor=none;resizable=0;rotatable=0;perimeter=centerPerimeter;snapToPoint=1;" vertex="1" parent="24"><mxGeometry y="25" width="20" height="20" as="geometry"/></mxCell><mxCell id="33" value="" style="shape=waypoint;sketch=0;fillStyle=solid;size=6;pointerEvents=1;points=[];fillColor=none;resizable=0;rotatable=0;perimeter=centerPerimeter;snapToPoint=1;" vertex="1" parent="24"><mxGeometry y="40" width="20" height="20" as="geometry"/></mxCell><mxCell id="34" value="" style="shape=waypoint;sketch=0;fillStyle=solid;size=6;pointerEvents=1;points=[];fillColor=none;resizable=0;rotatable=0;perimeter=centerPerimeter;snapToPoint=1;" vertex="1" parent="24"><mxGeometry y="55" width="20" height="20" as="geometry"/></mxCell><mxCell id="35" value="" style="shape=waypoint;sketch=0;fillStyle=solid;size=6;pointerEvents=1;points=[];fillColor=none;resizable=0;rotatable=0;perimeter=centerPerimeter;snapToPoint=1;" vertex="1" parent="24"><mxGeometry y="70" width="20" height="20" as="geometry"/></mxCell><mxCell id="36" value="" style="shape=waypoint;sketch=0;fillStyle=solid;size=6;pointerEvents=1;points=[];fillColor=none;resizable=0;rotatable=0;perimeter=centerPerimeter;snapToPoint=1;" vertex="1" parent="24"><mxGeometry y="85" width="20" height="20" as="geometry"/></mxCell><mxCell id="37" value="" style="shape=waypoint;sketch=0;fillStyle=solid;size=6;pointerEvents=1;points=[];fillColor=none;resizable=0;rotatable=0;perimeter=centerPerimeter;snapToPoint=1;" vertex="1" parent="24"><mxGeometry y="100" width="20" height="20" as="geometry"/></mxCell><mxCell id="58" value="mentors" style="swimlane;whiteSpace=wrap;html=1;" vertex="1" parent="1"><mxGeometry x="540" y="40" width="200" height="200" as="geometry"/></mxCell><mxCell id="59" value="upload study material" style="text;html=1;align=center;verticalAlign=middle;resizable=0;points=[];autosize=1;strokeColor=none;fillColor=none;" vertex="1" parent="58"><mxGeometry x="10" y="18" width="140" height="30" as="geometry"/></mxCell><mxCell id="60" value="write blogd" style="text;html=1;align=center;verticalAlign=middle;resizable=0;points=[];autosize=1;strokeColor=none;fillColor=none;" vertex="1" parent="58"><mxGeometry x="12" y="33" width="80" height="30" as="geometry"/></mxCell><mxCell id="61" value="upload/give course" style="text;html=1;align=center;verticalAlign=middle;resizable=0;points=[];autosize=1;strokeColor=none;fillColor=none;" vertex="1" parent="58"><mxGeometry x="12" y="48" width="120" height="30" as="geometry"/></mxCell><mxCell id="67" value="" style="shape=waypoint;sketch=0;size=6;pointerEvents=1;points=[];fillColor=none;resizable=0;rotatable=0;perimeter=centerPerimeter;snapToPoint=1;" vertex="1" parent="58"><mxGeometry y="70" width="20" height="20" as="geometry"/></mxCell><mxCell id="62" value="chat with students" style="text;html=1;align=center;verticalAlign=middle;resizable=0;points=[];autosize=1;strokeColor=none;fillColor=none;" vertex="1" parent="58"><mxGeometry x="10" y="65" width="120" height="30" as="geometry"/></mxCell><mxCell id="64" value="" style="shape=waypoint;sketch=0;size=6;pointerEvents=1;points=[];fillColor=none;resizable=0;rotatable=0;perimeter=centerPerimeter;snapToPoint=1;" vertex="1" parent="58"><mxGeometry y="24" width="20" height="20" as="geometry"/></mxCell><mxCell id="66" value="" style="shape=waypoint;sketch=0;size=6;pointerEvents=1;points=[];fillColor=none;resizable=0;rotatable=0;perimeter=centerPerimeter;snapToPoint=1;" vertex="1" parent="58"><mxGeometry y="54" width="20" height="20" as="geometry"/></mxCell><mxCell id="65" value="" style="shape=waypoint;sketch=0;size=6;pointerEvents=1;points=[];fillColor=none;resizable=0;rotatable=0;perimeter=centerPerimeter;snapToPoint=1;" vertex="1" parent="58"><mxGeometry y="38" width="20" height="20" as="geometry"/></mxCell><mxCell id="68" value="" style="endArrow=classic;html=1;entryX=0.5;entryY=0;entryDx=0;entryDy=0;entryPerimeter=0;" edge="1" parent="1" target="2"><mxGeometry width="50" height="50" relative="1" as="geometry"><mxPoint x="270" y="280" as="sourcePoint"/><mxPoint x="480" y="190" as="targetPoint"/><Array as="points"><mxPoint x="390" y="280"/></Array></mxGeometry></mxCell><mxCell id="69" value="" style="endArrow=classic;html=1;entryX=1;entryY=0.5;entryDx=0;entryDy=0;entryPerimeter=0;exitX=0;exitY=0.75;exitDx=0;exitDy=0;" edge="1" parent="1" source="58" target="2"><mxGeometry width="50" height="50" relative="1" as="geometry"><mxPoint x="490" y="210" as="sourcePoint"/><mxPoint x="490" y="360" as="targetPoint"/><Array as="points"><mxPoint x="490" y="190"/><mxPoint x="490" y="400"/></Array></mxGeometry></mxCell><mxCell id="70" value="" style="endArrow=classic;html=1;entryX=1;entryY=0;entryDx=0;entryDy=82.49999999999999;entryPerimeter=0;exitX=-0.302;exitY=0.179;exitDx=0;exitDy=0;exitPerimeter=0;" edge="1" parent="1" source="57" target="2"><mxGeometry width="50" height="50" relative="1" as="geometry"><mxPoint x="430" y="550" as="sourcePoint"/><mxPoint x="480" y="500" as="targetPoint"/><Array as="points"><mxPoint x="490" y="584"/><mxPoint x="490" y="422"/></Array></mxGeometry></mxCell><mxCell id="71" value="" style="endArrow=classic;html=1;entryX=0;entryY=0;entryDx=0;entryDy=82.49999999999999;entryPerimeter=0;exitX=1.022;exitY=0.125;exitDx=0;exitDy=0;exitPerimeter=0;" edge="1" parent="1" source="24" target="2"><mxGeometry width="50" height="50" relative="1" as="geometry"><mxPoint x="430" y="360" as="sourcePoint"/><mxPoint x="480" y="310" as="targetPoint"/></mxGeometry></mxCell></root></mxGraphModel></diagram></mxfile>